<?xml version="1.0" encoding="utf-8"?>
<svg version="1.1" xmlns="http://www.w3.org/2000/svg" xmlns:xlink="http://www.w3.org/1999/xlink" viewBox="0 0 200 200" class="u-whirr">
    <ellipse fill="#45525A" cx="100" cy="99.9" rx="20" ry="20"/>
    <path fill="#C2E5F8" d="M100,180v-40.1c33.1,0,60-27,60-60.1h40C200,135.1,155.1,180,100,180z"/>
    <path fill="#009A91" d="M120,200C64.9,200,20,155.1,20,99.9h40c0,33.1,26.9,60.1,60,60.1V200z"/>
    <path fill="#45525A" d="M40,119.9H0C0,64.7,44.9,19.8,100,19.8v40.1C66.9,59.8,40,86.8,40,119.9z"/>
    <path fill="#FFD300" d="M180,99.9h-40c0-33.1-26.9-60.1-60-60.1V-0.3C135.1-0.3,180,44.7,180,99.9z"/>
    <path fill="#C2E5F8" d="M145,119.5c9.3-10.6,15-24.5,15-39.7h40c0,14.2-3,27.8-8.4,40.1C176.2,155.2,134,132,145,119.5z"/>
</svg>
