<?xml version="1.0" encoding="utf-8"?>
<!-- Generator: Adobe Illustrator 19.2.1, SVG Export Plug-In . SVG Version: 6.00 Build 0)  -->
<svg version="1.1" id="Layer_1" xmlns="http://www.w3.org/2000/svg" xmlns:xlink="http://www.w3.org/1999/xlink" x="0px" y="0px"
	 viewBox="0 0 200 56" style="enable-background:new 0 0 200 56;" xml:space="preserve">
<style type="text/css">
	.st0{fill:#45525A;}
</style>
<g>
	<path class="st0" d="M13,53c-4.2-2.3-7.4-5.6-9.6-9.8C1.1,38.8,0,33.8,0,28.1s1.1-10.7,3.4-14.9C5.7,9,8.9,5.7,13,3.4
		C17.2,1.1,22,0,27.7,0c5.6,0,10.5,1.1,14.6,3.4c4.1,2.3,7.3,5.6,9.5,9.8c2.2,4.2,3.3,9.2,3.3,14.9s-1.1,10.7-3.3,15
		c-2.2,4.3-5.4,7.6-9.5,9.8c-4.1,2.3-9,3.4-14.6,3.4C22,56.4,17.1,55.2,13,53z M37.4,40.9c2.3-2.9,3.5-7.2,3.5-12.8
		c0-5.6-1.2-9.8-3.5-12.7C35,12.5,31.8,11,27.7,11c-4.1,0-7.3,1.4-9.7,4.3c-2.3,2.9-3.5,7.1-3.5,12.7c0,5.7,1.2,10,3.5,12.9
		c2.3,2.9,5.5,4.4,9.7,4.4C31.8,45.3,35,43.9,37.4,40.9z"/>
	<path class="st0" d="M95.5,0.7h14.2v55H95.5V33.4H73.2v22.2H59v-55h14.2v21.4h22.2V0.7z"/>
	<path class="st0" d="M122.7,54.8c-4-1.1-7.3-2.5-9.8-4.4l4.6-10.3c2.7,1.7,5.5,3,8.5,3.9c3,0.9,6,1.4,9.1,1.4
		c3.1,0,5.5-0.4,7.1-1.3c1.6-0.8,2.5-2,2.5-3.6c0-1.4-0.7-2.5-2.2-3.4c-1.5-0.9-4.3-1.8-8.4-2.7c-5.2-1-9.2-2.3-12.1-3.8
		c-2.9-1.5-4.9-3.3-6.1-5.4c-1.2-2.1-1.7-4.6-1.7-7.5c0-3.3,1-6.4,2.9-9.1c1.9-2.7,4.6-4.8,8-6.3c3.5-1.5,7.4-2.3,11.8-2.3
		c4,0,7.8,0.6,11.5,1.7c3.7,1.1,6.7,2.6,8.8,4.4l-4.5,10.3c-2.4-1.7-5-3-7.6-3.9c-2.7-0.9-5.4-1.4-8-1.4c-2.6,0-4.7,0.5-6.3,1.5
		c-1.6,1-2.4,2.4-2.4,4.1c0,0.9,0.3,1.7,0.8,2.3c0.6,0.6,1.6,1.2,3.2,1.8c1.5,0.6,3.9,1.2,7,1.9c5,1.1,8.9,2.4,11.8,3.9
		c2.9,1.5,4.9,3.3,6.1,5.3c1.2,2,1.8,4.5,1.8,7.3c0,5.4-2.1,9.6-6.3,12.6c-4.2,3.1-10,4.6-17.6,4.6
		C130.8,56.4,126.7,55.9,122.7,54.8z"/>
	<path class="st0" d="M162.2,55.7v-55h14.5V44H200v11.7H162.2z"/>
</g>
</svg>
