<?xml version="1.0" encoding="utf-8"?>
<svg version="1.1" xmlns="http://www.w3.org/2000/svg" xmlns:xlink="http://www.w3.org/1999/xlink"
	 viewBox="0 0 200 81">
<style type="text/css">
	.a{fill:#45525A;}
	.b{fill:#C2E5F8;}
	.c{fill:#009A91;}
	.d{fill:#FFD300;}
</style>
	<path class="a" d="M98.9,53.8c-2.3-1.2-4-3-5.2-5.3c-1.2-2.3-1.8-5-1.8-8.1s0.6-5.8,1.8-8.1c1.2-2.3,3-4,5.2-5.3
		c2.2-1.2,4.9-1.9,7.9-1.9c3,0,5.7,0.6,7.9,1.9c2.2,1.2,4,3,5.2,5.3c1.2,2.3,1.8,5,1.8,8.1s-0.6,5.8-1.8,8.1
		c-1.2,2.3-2.9,4.1-5.2,5.3c-2.2,1.2-4.9,1.9-7.9,1.9C103.8,55.7,101.2,55,98.9,53.8z M112.1,47.3c1.3-1.6,1.9-3.9,1.9-6.9
		c0-3-0.6-5.3-1.9-6.9c-1.3-1.6-3-2.4-5.2-2.4c-2.2,0-4,0.8-5.2,2.3c-1.3,1.6-1.9,3.9-1.9,6.9c0,3.1,0.6,5.4,1.9,7
		c1.3,1.6,3,2.4,5.2,2.4C109.1,49.7,110.9,48.9,112.1,47.3z"/>
	<path class="a" d="M143.6,25.5h7.7v29.7h-7.7v-12h-12v12h-7.7V25.5h7.7v11.6h12V25.5z"/>
	<path class="a" d="M158.3,54.8c-2.2-0.6-3.9-1.4-5.3-2.4l2.5-5.6c1.4,0.9,3,1.6,4.6,2.1c1.6,0.5,3.3,0.7,4.9,0.7
		c1.7,0,3-0.2,3.8-0.7c0.9-0.5,1.3-1.1,1.3-1.9c0-0.8-0.4-1.4-1.2-1.9c-0.8-0.5-2.3-1-4.6-1.4c-2.8-0.6-5-1.2-6.6-2.1
		c-1.6-0.8-2.7-1.8-3.3-2.9c-0.6-1.1-0.9-2.5-0.9-4.1c0-1.8,0.5-3.4,1.5-4.9c1-1.5,2.5-2.6,4.3-3.4c1.9-0.8,4-1.2,6.4-1.2
		c2.1,0,4.2,0.3,6.2,0.9c2,0.6,3.6,1.4,4.7,2.4l-2.4,5.6c-1.3-0.9-2.7-1.6-4.1-2.1c-1.4-0.5-2.9-0.7-4.3-0.7
		c-1.4,0-2.6,0.3-3.4,0.8c-0.9,0.5-1.3,1.3-1.3,2.2c0,0.5,0.2,0.9,0.5,1.3c0.3,0.3,0.9,0.7,1.7,1c0.8,0.3,2.1,0.7,3.8,1
		c2.7,0.6,4.8,1.3,6.4,2.1c1.5,0.8,2.6,1.8,3.3,2.9c0.6,1.1,1,2.4,1,3.9c0,2.9-1.1,5.2-3.4,6.8c-2.3,1.7-5.4,2.5-9.5,2.5
		C162.6,55.7,160.4,55.4,158.3,54.8z"/>
	<path class="a" d="M179.7,55.3V25.5h7.9v23.4h12.6v6.4H179.7z"/>
	<circle class="a" cx="40.2" cy="40.4" r="8.1"/>
	<path class="b" d="M40.2,72.7V56.6c13.4,0,24.2-10.9,24.2-24.2h16.2C80.6,54.6,62.5,72.7,40.2,72.7z"/>
	<path class="c" d="M48.3,80.8C26,80.8,7.9,62.7,7.9,40.4h16.2c0,13.4,10.9,24.2,24.2,24.2V80.8z"/>
	<path class="a" d="M16,48.5H-0.2C-0.2,26.2,18,8.1,40.2,8.1v16.2C26.9,24.2,16,35.1,16,48.5z"/>
	<path class="d" d="M72.6,40.4H56.4c0-13.4-10.9-24.2-24.2-24.2V0C54.4,0,72.6,18.1,72.6,40.4z"/>
	<path class="b" d="M58.4,48.3c3.8-4.3,6.1-9.9,6.1-16h16.2c0,5.7-1.2,11.2-3.4,16.2C71,62.7,54,53.4,58.4,48.3z"/>
</svg>