<svg xmlns="http://www.w3.org/2000/svg" viewBox="0 0 174 199.5"><defs><style>.a{fill:#45525a;}.b{fill:#c2e5f8;}.c{fill:#009a91;}.d{fill:#ffd300;}</style></defs><title>ohsl</title><path class="a" d="M11.32,196.57A20.31,20.31,0,0,1,2.95,188,27.7,27.7,0,0,1,0,175a27,27,0,0,1,3-13,20.67,20.67,0,0,1,8.37-8.5,25.92,25.92,0,0,1,12.74-3,25.93,25.93,0,0,1,12.74,3,20.26,20.26,0,0,1,8.3,8.5A27.56,27.56,0,0,1,48,175a28,28,0,0,1-2.89,13,20.16,20.16,0,0,1-8.3,8.57,25.92,25.92,0,0,1-12.74,3A26.1,26.1,0,0,1,11.32,196.57Zm21.2-10.45q3.06-3.83,3.06-11.16t-3.06-11.06a10.24,10.24,0,0,0-8.43-3.8,10.18,10.18,0,0,0-8.4,3.76q-3,3.76-3,11.09t3,11.19a10.14,10.14,0,0,0,8.4,3.8A10.2,10.2,0,0,0,32.52,186.12Z"/><path class="a" d="M83.09,151.1H95.46V199H83.09V179.6H63.74V199H51.37V151.1H63.74v18.62H83.09V151.1Z"/><path class="a" d="M106.75,198.15a25.53,25.53,0,0,1-8.54-3.83l4-8.94a29.66,29.66,0,0,0,7.43,3.39,27.43,27.43,0,0,0,7.9,1.18,13.78,13.78,0,0,0,6.18-1.11,3.31,3.31,0,0,0,.2-6.12,26.65,26.65,0,0,0-7.33-2.32A39.86,39.86,0,0,1,106,177.08a12.44,12.44,0,0,1-5.28-4.67,13.11,13.11,0,0,1-1.51-6.52,13.38,13.38,0,0,1,2.49-7.9,16.38,16.38,0,0,1,7-5.51,25.31,25.31,0,0,1,10.28-2,35.18,35.18,0,0,1,10,1.45,20.77,20.77,0,0,1,7.63,3.8l-3.9,8.94a26,26,0,0,0-6.65-3.39,21.82,21.82,0,0,0-7-1.18,10.24,10.24,0,0,0-5.51,1.31,4,4,0,0,0-2.08,3.53,2.87,2.87,0,0,0,.74,2,7.43,7.43,0,0,0,2.76,1.58,44.27,44.27,0,0,0,6,1.65,40.74,40.74,0,0,1,10.25,3.39,12.84,12.84,0,0,1,5.28,4.64,12.41,12.41,0,0,1,1.55,6.35,12.89,12.89,0,0,1-5.44,11q-5.44,4-15.32,4A40.64,40.64,0,0,1,106.75,198.15Z"/><path class="a" d="M141.16,199V151.1h12.63v37.64H174V199H141.16Z"/><circle class="a" cx="85.51" cy="65" r="13"/><path class="b" d="M85.51,117V91a39,39,0,0,0,39-39h26A65.07,65.07,0,0,1,85.51,117Z"/><path class="c" d="M98.51,130a65.07,65.07,0,0,1-65-65h26a39,39,0,0,0,39,39v26Z"/><path class="a" d="M46.51,78h-26a65.07,65.07,0,0,1,65-65V39A39,39,0,0,0,46.51,78Z"/><path class="d" d="M137.51,65h-26a39,39,0,0,0-39-39V0A65.07,65.07,0,0,1,137.51,65Z"/><path class="b" d="M114.76,77.77A38.84,38.84,0,0,0,124.51,52h26a64.63,64.63,0,0,1-5.43,26C135,100.93,107.61,85.88,114.76,77.77Z"/></svg>