<?xml version="1.0" encoding="utf-8"?>
<!-- Generator: Adobe Illustrator 19.2.1, SVG Export Plug-In . SVG Version: 6.00 Build 0)  -->
<svg version="1.1" id="Layer_1" xmlns:svg="http://www.w3.org/2000/svg"
	 xmlns="http://www.w3.org/2000/svg" xmlns:xlink="http://www.w3.org/1999/xlink" x="0px" y="0px" viewBox="0 0 100 100"
	 style="enable-background:new 0 0 100 100;" xml:space="preserve">
<path d="M46,5c-2.3,0-4.4,0.7-5.8,2.2c-1,1-1.5,2.4-1.8,3.8H34c-1.6,0-3,1.4-3,3v3h-5c-4.4,0-8,3.6-8,8v62c0,4.4,3.6,8,8,8h48
	c4.4,0,8-3.6,8-8V25c0-4.4-3.6-8-8-8h-5v-3c0-1.6-1.4-3-3-3h-4.3c-0.3-1.5-0.9-2.8-1.9-3.8C58.3,5.7,56.3,5,54,5H46z M46,9h8
	c1.4,0,2.3,0.4,3,1s1,1.5,1,3c0,1.1,0.9,2,2,2h5v8H35v-8h5c1.1,0,2-0.9,2-2c0,0,0,0,0,0c0-1.4,0.4-2.3,1-2.9S44.6,9,46,9z M26,21h5
	v3c0,1.6,1.4,3,3,3h32c1.6,0,3-1.4,3-3v-3h5c2.3,0,4,1.7,4,4v62c0,2.3-1.7,4-4,4H26c-2.3,0-4-1.7-4-4V25C22,22.7,23.7,21,26,21z
	 M50,43c-1.1,0-2,0.9-2,2v12H36c-1.1,0-2,0.9-2,2s0.9,2,2,2h12v12c0,1.1,0.9,2,2,2s2-0.9,2-2V61h12c1.1,0,2-0.9,2-2s-0.9-2-2-2H52
	V45C52,43.9,51.1,43,50,43z"/>
</svg>
