<?xml version="1.0" encoding="utf-8"?>
<!-- Generator: Adobe Illustrator 19.2.1, SVG Export Plug-In . SVG Version: 6.00 Build 0)  -->
<svg version="1.1" id="Layer_3" xmlns="http://www.w3.org/2000/svg" xmlns:xlink="http://www.w3.org/1999/xlink" x="0px" y="0px"
	 viewBox="0 0 100 100" style="enable-background:new 0 0 100 100;" xml:space="preserve">
<g transform="translate(0,-952.36218)">
	<path d="M46,957.4c-2.3,0-4.4,0.7-5.8,2.2c-1,1-1.5,2.4-1.8,3.8H34c-1.6,0-3,1.4-3,3v3h-5c-4.4,0-8,3.6-8,8v62c0,4.4,3.6,8,8,8h48
		c4.4,0,8-3.6,8-8v-62c0-4.4-3.6-8-8-8h-5v-3c0-1.6-1.4-3-3-3h-4.3c-0.3-1.5-0.9-2.8-1.9-3.8c-1.5-1.5-3.5-2.2-5.8-2.2H46z
		 M46,961.4h8c1.4,0,2.3,0.4,3,1c0.6,0.6,1,1.5,1,3c0,1.1,0.9,2,2,2h5v8H35v-8h5c1.1,0,2-0.9,2-2c0,0,0,0,0,0c0-1.4,0.4-2.3,1-2.9
		C43.7,961.8,44.6,961.4,46,961.4z M26,973.4h5v3c0,1.6,1.4,3,3,3h32c1.6,0,3-1.4,3-3v-3h5c2.3,0,4,1.7,4,4v62c0,2.3-1.7,4-4,4H26
		c-2.3,0-4-1.7-4-4v-62C22,975.1,23.7,973.4,26,973.4z M50,994.4c-0.8,0-1.6,0.5-1.9,1.3l-3.9,9.5l-10.4,0.8
		c-0.8,0.1-1.5,0.6-1.8,1.3c-0.2,0.7,0,1.6,0.6,2.1l8,6.6l-2.5,9.9c-0.3,1.1,0.5,2.3,1.7,2.5c0.5,0.1,0.9,0,1.3-0.3l8.8-5.4l8.8,5.4
		c0.7,0.4,1.6,0.4,2.3-0.1c0.6-0.5,0.9-1.4,0.7-2.1l-2.5-9.9l8-6.6c0.6-0.5,0.8-1.4,0.6-2.1c-0.2-0.7-1-1.3-1.8-1.3l-10.3-0.8
		l-3.9-9.5C51.6,994.9,50.8,994.4,50,994.4L50,994.4z M50,1001.7l2.5,6.1c0.3,0.7,1,1.2,1.7,1.2l6.7,0.5l-5.1,4.2
		c-0.6,0.5-0.8,1.3-0.7,2l1.6,6.4l-5.7-3.5c-0.6-0.4-1.5-0.4-2.1,0l-5.7,3.5l1.6-6.4c0.2-0.7-0.1-1.5-0.7-2l-5.1-4.2l6.7-0.5
		c0.7,0,1.4-0.5,1.7-1.2L50,1001.7z"/>
</g>
</svg>
